<?xml version="1.0" encoding="utf-8"?>
<!-- Generator: Adobe Illustrator 22.1.0, SVG Export Plug-In . SVG Version: 6.00 Build 0)  -->
<svg version="1.1" id="Layer_1" xmlns="http://www.w3.org/2000/svg" xmlns:xlink="http://www.w3.org/1999/xlink" x="0px" y="0px"
	 viewBox="0 0 180 180" style="enable-background:new 0 0 180 180;" xml:space="preserve">
<style type="text/css">
	.st0{fill:#FFFFFF;stroke:#000000;stroke-miterlimit:10;}
</style>
<g>
	<path class="st0" d="M86.4,6.1C43.7,7.7,8.7,42.3,6.6,85c-1.9,38.6,22.5,71.8,56.8,83.2c4.2,0.8,5.5-1.8,5.5-4v-15.5
		c-23.2,5-28-9.8-28-9.8c-3.8-9.6-9.2-12.2-9.2-12.2c-7.6-5.2,0.6-5.1,0.6-5.1c8.4,0.6,12.8,8.6,12.8,8.6c7.4,12.7,19.5,9,24.2,6.9
		c0.7-5.4,2.9-9.1,5.3-11.1c-18.5-2.1-37.9-9.3-37.9-41.1c0-9.1,3.3-16.5,8.6-22.3c-0.9-2.1-3.7-10.6,0.8-22c0,0,7-2.2,22.9,8.5
		c6.6-1.8,13.8-2.8,20.8-2.8c7.1,0,14.2,1,20.8,2.8c15.9-10.8,22.9-8.5,22.9-8.5c4.5,11.5,1.7,19.9,0.8,22
		c5.3,5.8,8.6,13.3,8.6,22.3c0,32-19.5,39-38,41.1c3,2.6,5.7,7.6,5.7,15.4v22.8c0,2.2,1.3,4.8,5.6,4c33-11,56.9-42.2,56.9-79
		C173,42.2,133.9,4.2,86.4,6.1z"/>
</g>
</svg>
