<?xml version="1.0" encoding="utf-8"?>
<!-- Generator: Adobe Illustrator 22.1.0, SVG Export Plug-In . SVG Version: 6.00 Build 0)  -->
<svg version="1.1" id="Layer_1" xmlns="http://www.w3.org/2000/svg" xmlns:xlink="http://www.w3.org/1999/xlink" x="0px" y="0px"
	 viewBox="0 0 180 180" style="enable-background:new 0 0 180 180;" xml:space="preserve">
<style type="text/css">
	.st0{fill:#FFFFFF;stroke:#000000;stroke-miterlimit:10;}
</style>
<g>
	<path class="st0" d="M166.2,75h-3c-2.7-14.8-9.8-28.6-20.8-39.5c-14.2-14.2-33-22-53-22s-38.9,7.8-53,22
		c-11,11-18.2,24.9-20.8,40.5h-2.9C9.4,75.4,6,81.4,6,81.4v21.8c0,0,3.4,6,6.7,5.7h4.7c4,14.2,12,26.8,23.2,36.4
		c1,0.9,2.5,0.8,3.4-0.3c0.9-1,0.8-2.5-0.3-3.4c-2.9-2.5-5.6-5.2-8-8.1c3.7-1.6,7.5-2.9,11.3-3.9c1.8,3.2,3.8,6.3,6.1,9.2
		c4.9,6.5,10.5,12.1,16.5,16.8c-4.9-1.4-9.7-3.4-14.2-5.9c-1.2-0.7-2.6-0.2-3.3,0.9c-0.7,1.2-0.2,2.6,0.9,3.3
		c11.1,6.1,23.6,9.4,36.4,9.4c20,0,38.9-7.8,53-22c9.1-9.1,15.6-20.1,19-31.5h4.7c3.3-0.6,5.8-6.6,5.8-6.6V81.1
		C172,81.1,169.5,75.1,166.2,75z M158.3,75h-16.9c-0.2-1.3-0.4-2.5-0.7-3.8c-1.4-7-3.7-13.6-6.7-19.9c0.4-0.1,0.9-0.2,1.3-0.4
		c3.1-0.9,7-2.1,10.9-3.7C152.3,55.5,156.4,65,158.3,75z M136.6,75h-25.1c-0.1-1.2-0.2-2.4-0.3-3.6c-0.5-5.4-1.2-10.7-2.1-15.7
		c7-0.7,13.7-1.9,20.1-3.4c3.1,6.2,5.3,12.7,6.8,19.6C136.2,72.9,136.4,74,136.6,75z M139.1,38.9c1.4,1.4,2.8,2.9,4.1,4.4
		c-3.2,1.3-6.5,2.3-9.1,3c-0.8,0.2-1.5,0.4-2.3,0.6c-1.5-2.8-3.2-5.4-5.1-8c-4.8-6.8-10.6-12.7-17.1-17.7
		C120.6,24.5,130.7,30.5,139.1,38.9z M96.9,18.8c10.3,5.8,19,13.6,25.8,23.1c1.5,2.1,2.9,4.2,4.1,6.4c-6,1.4-12.2,2.4-18.7,3
		c-2.8-13.1-7.1-24.4-12.4-32.6C96.1,18.7,96.5,18.7,96.9,18.8z M89.5,19l0.2-1c5.9,8.1,10.6,19.8,13.7,33.7
		c-5.2,0.4-10.5,0.5-15.9,0.4c-3.7-0.1-7.6-0.2-11.7-0.4c3-13.9,7.8-25.6,13.7-32.7H89.5z M83.2,18.6c-5.3,8.3-9.6,19.6-12.4,32.7
		c-6.1-0.5-12.5-1.4-18.8-2.9c1.3-2.3,2.7-4.5,4.3-6.7C63,32.3,71.7,24.6,82,18.8C82.4,18.7,82.8,18.7,83.2,18.6z M69.8,55.7
		c-0.9,5-1.6,10.2-2.1,15.6c-0.1,1.2-0.2,2.4-0.3,3.6H42.3c0.2-1,0.4-2.1,0.6-3.1c1.4-6.8,3.6-13.3,6.6-19.4
		C56.4,54.2,63.3,55.1,69.8,55.7z M39.9,38.9c8.4-8.4,18.5-14.4,29.5-17.6c-6.6,5-12.3,11-17.1,17.7c-1.9,2.7-3.6,5.4-5.2,8.3
		c-3.8-1.1-7.6-2.3-11.3-3.9C37.1,41.8,38.4,40.3,39.9,38.9z M32.7,46.9c4,1.7,8,3.2,12.1,4.3c-3,6.2-5.2,12.8-6.6,19.6
		c-0.3,1.4-0.5,2.7-0.7,4.1H20.5C22.4,64.8,26.6,55.3,32.7,46.9z M13,104.4c-0.9,0-1.5-0.5-1-1.2V81.4c-0.5-0.6,0.1-1.2,0.7-1.4
		h70.1c1.3,0.3,2.4-0.8,2.4-2.2c0-1.3-1.1-2.4-2.4-2.8H72.3c0.1-0.7,0.2-1.7,0.3-2.8c0.5-5.4,1.2-10.7,2.1-15.7
		c4.4,0.3,8.7,0.4,12.6,0.5c1,0,1.9,0,2.9,0c4.8,0,9.5-0.2,14.1-0.5c0.9,5,1.6,10.3,2.1,15.7c0.1,1.1,0.2,2.1,0.3,2.8h-8.7
		c-1.3,0.4-2.4,1.5-2.4,2.8c0,1.3,2.4,2.2,2.4,2.2H136v24H13V104.4z M135,109c-1.4,5.2-3.3,10.3-5.8,15.1
		c-6.4-1.5-13.1-2.7-20.1-3.4c0.7-3.8,1.3-7.7,1.7-11.7L135,109L135,109z M106,109c-0.4,3.9-1,7.6-1.7,11.3
		c-5.5-0.4-11.2-0.6-17-0.5c-4,0.1-8.2,0.2-12.6,0.5c-0.7-3.6-1.2-7.4-1.7-11.2H106z M32.7,129.4c-4.5-6.2-8-13.1-10.2-20.4h16.5
		c1.4,5.6,3.4,10.9,5.9,16.1C40.7,126.3,36.6,127.7,32.7,129.4z M43.9,109h24.2c0.4,4,1,7.8,1.7,11.6c-6.5,0.6-13.4,1.6-20.2,3.2
		C47.2,119.1,45.3,114.1,43.9,109z M81.9,158.2c-9.1-5.1-17.7-12.8-24.9-22.2c-1.8-2.4-3.5-4.9-5.1-7.5c6.3-1.4,12.7-2.3,18.7-2.8
		c1,4.4,2.1,8.6,3.4,12.6c1.9,5.8,5,13.6,9.1,20.1C82.8,158.3,82.4,158.3,81.9,158.2z M89.5,158.7c-0.1,0-0.1,0-0.2,0
		c-3.8-5.1-7.5-12.6-10.5-21.9c-1.2-3.6-2.2-7.4-3.1-11.4c4.1-0.2,8-0.4,11.7-0.4c5.4-0.1,10.7,0.1,15.9,0.4
		c-0.9,4-1.9,7.8-3.1,11.4c-3.1,9.3-6.7,16.8-10.5,21.9C89.6,158.7,89.5,158.7,89.5,158.7z M95.7,158.4c4.1-6.5,7.1-14.3,9.1-20.1
		c1.3-3.9,2.4-8.1,3.4-12.5c6.4,0.7,12.6,1.7,18.6,3c-1.5,2.5-3.1,4.9-4.9,7.2c-7.2,9.4-15.8,17.1-24.9,22.2
		C96.5,158.3,96.1,158.3,95.7,158.4z M139.1,138.1c-8.5,8.5-18.7,14.5-29.9,17.7c6-4.7,11.6-10.4,16.5-16.9c2.2-2.9,4.2-5.9,6-9
		c0.8,0.2,1.6,0.4,2.3,0.6c2.6,0.8,5.9,1.7,9.1,3C141.8,135.2,140.5,136.7,139.1,138.1z M146.2,129.3c-3.9-1.7-7.8-2.9-10.9-3.7
		c-0.4-0.1-0.9-0.2-1.3-0.4c2.6-5.2,4.5-10.6,6-16.2h16.5C154.2,116.3,150.8,123.1,146.2,129.3z M165.8,104H140V80h25.8
		c0.6,0,1.2,0.5,1.2,1.2v21.7C167,103.5,166.5,104,165.8,104z"/>
	<path class="st0" d="M25.1,97c0,0.4-0.5,0.8-1.2,0.8c-0.7,0-1.1-0.4-0.9-0.7V85c-0.3-0.4,0.2-0.7,0.9-0.7c0.6,0,1.1,0.7,1.1,0.7
		v5.5c0.3-0.7,1.1-1.3,2.1-1.3c1.5,0,2.9,1.5,2.9,3.4V97c0,0-0.2,0.7-0.8,0.7C28.7,97.8,28,97,28,97v-4.3c0-0.8-0.7-1.6-1.5-1.6
		c-0.7,0-1.5,0.6-1.5,1.6L25.1,97L25.1,97z"/>
	<path class="st0" d="M35,95c0,0.7,0.3,1,1.1,1h1.1c0.7,0,1,0.5,1,1c0,0.5-0.3,1-1,1h-0.7c-2.2,0-3.4-0.9-3.4-3v-8.9
		c0,0,0.8-0.7,1.3-0.7c0.6,0,1.2,0.3,0.7,0.7V89h2.6c0.4,0.2,0.6,0.7,0.6,1.1c0,0.4-0.2,0.8-0.6,0.9H35L35,95L35,95z"/>
	<path class="st0" d="M43,94.9c-0.2,0.7,0,1,0.8,1.1h0.7c0.7-0.2,1,0.3,1,0.8c0,0.5-0.3,1-1,1.2h-0.7c-2.2-0.2-2.8-3.1-2.8-3.1v-8.7
		c0,0,0.1-0.7,0.6-0.7c0.6,0,1.2,0.3,1.4,0.7V89h1.9c0.4,0.2,0.6,0.7,0.6,1.1c0,0.4-0.2,0.8-0.6,0.9H43V94.9z"/>
	<path class="st0" d="M50,89.9v0.6c0,0,1.3-1.4,2.4-1.4c1.8,0,2.6,3.6,2.6,3.6v1.6c0,1.7-1.3,3.4-2.9,3.4c-1,0-1.8-0.6-2.1-1.3v4.5
		c0,0-0.4,0.7-1,0.7c-0.7,0-1-0.7-1-0.7V89.9c0-0.4,0.4-0.7,1-0.7C49.6,89.3,50,89.5,50,89.9z M53,92.8c0-0.8-0.7-1.5-1.5-1.5
		c-0.7,0-1.5,0.6-1.5,1.5v1.7c0,0.4,0.6,1.3,1.5,1.3c0.8,0,1.5-0.8,1.5-1.6V92.8z"/>
	<path class="st0" d="M62.2,95.4c0-1.6-4.3-0.6-4.3-3.6c0-1.3,0.8-2.7,3.2-2.7c1.5,0,2.9,0.5,2.9,1.2c0,0.3-0.3,1.1-0.8,1.1
		c-0.4,0-1-0.5-2-0.5c-0.9,0-1.3,0.4-1.3,0.8c0,1.3,4.3,0.4,4.3,3.6c0,1.6-1.2,2.6-3.3,2.6c-1.8,0-3.2-0.8-3.2-1.5
		c0-0.4,0.3-1,0.8-1c0.5,0,0.9,0.8,2.4,0.8C62,96.2,62.2,95.8,62.2,95.4z"/>
	<path class="st0" d="M69,91.4c0,0.6-0.6,1.2-1.2,1.2c-0.7,0-1.2-0.6-1.2-1.2c0-0.7,0.5-1.2,1.2-1.2C68.4,90.2,69,90.8,69,91.4z
		 M69,96.7c0,0.6-0.6,1.2-1.2,1.2c-0.7,0-1.2-0.6-1.2-1.2c0-0.7,0.5-1.2,1.2-1.2C68.4,95.4,69,96,69,96.7z"/>
	<path class="st0" d="M79.2,84.7c0,0.1,0,0.2-0.1,0.3l-6.4,13c-0.1,0.3-0.4,0.4-0.7,0.4c-0.5,0-0.9-0.4-0.9-0.8c0-0.1,0-0.2,0.1-0.3
		l6.4-13.1c0.1-0.3,0.4-0.4,0.6-0.4C78.8,83.9,79.2,84.3,79.2,84.7z"/>
	<path class="st0" d="M84.7,84.7c0,0.1,0,0.2-0.1,0.3l-6.4,13c-0.1,0.3-0.4,0.4-0.7,0.4c-0.5,0-0.9-0.4-0.9-0.8c0-0.1,0-0.2,0.1-0.3
		l6.4-13.1c0.1-0.3,0.4-0.4,0.6-0.4C84.2,83.9,84.7,84.3,84.7,84.7z"/>
	<path class="st0" d="M95,97.5c-0.1,0.3-0.5,0.4-0.9,0.4c-0.4,0-0.8-0.1-1-0.4l-1.4-3.9l-1.4,3.9c-0.1,0.3-0.5,0.4-1,0.4
		c-0.4,0-0.8-0.1-0.9-0.4l-2.8-7.1c-0.1-0.1-0.1-0.3-0.1-0.3c0-0.6,0.9-1,1.5-1c0.3,0,0.6,0.1,0.7,0.4l1.8,5.1l1.3-4.4
		c0.1-0.4,0.4-0.5,0.8-0.5c0.3,0,0.7,0.1,0.8,0.5l1.3,4.4l1.8-5.1c0.1-0.2,0.3-0.4,0.7-0.4c0.6,0,1.5,0.4,1.5,1c0,0.1,0,0.2-0.1,0.3
		L95,97.5z"/>
	<path class="st0" d="M108.5,97.5c-0.1,0.3-0.5,0.4-0.9,0.4c-0.4,0-0.8-0.1-1-0.4l-1.4-3.9l-1.4,3.9c-0.1,0.3-0.5,0.4-1,0.4
		c-0.4,0-0.8-0.1-0.9-0.4l-2.8-7.1c-0.1-0.1-0.1-0.3-0.1-0.3c0-0.6,0.9-1,1.5-1c0.3,0,0.6,0.1,0.7,0.4l1.8,5.1l1.3-4.4
		c0.1-0.4,0.4-0.5,0.8-0.5c0.3,0,0.7,0.1,0.8,0.5l1.3,4.4l1.8-5.1c0.1-0.2,0.3-0.4,0.7-0.4c0.6,0,1.5,0.4,1.5,1c0,0.1,0,0.2-0.1,0.3
		L108.5,97.5z"/>
	<path class="st0" d="M122,97.5c-0.1,0.3-0.5,0.4-0.9,0.4c-0.4,0-0.8-0.1-1-0.4l-1.4-3.9l-1.4,3.9c-0.1,0.3-0.5,0.4-1,0.4
		c-0.4,0-0.8-0.1-0.9-0.4l-2.8-7.1c-0.1-0.1-0.1-0.3-0.1-0.3c0-0.6,0.9-1,1.5-1c0.3,0,0.6,0.1,0.7,0.4l1.8,5.1l1.3-4.4
		c0.1-0.4,0.4-0.5,0.8-0.5c0.3,0,0.7,0.1,0.8,0.5l1.3,4.4l1.8-5.1c0.1-0.2,0.3-0.4,0.7-0.4c0.6,0,1.5,0.4,1.5,1c0,0.1,0,0.2-0.1,0.3
		L122,97.5z"/>
	<path class="st0" d="M161,87.2l-2.6-0.4l-1.2-2.4c-0.6-1.3-1.9-2-3.3-2c-1.4,0-2.6,0.8-3.3,2l-1.2,2.4l-2.6,0.4
		c-1.4,0.2-2.5,1.2-2.9,2.5c-0.4,1.3-0.1,2.8,0.9,3.7l1.9,1.8l-0.4,2.6c-0.2,1.4,0.3,2.7,1.4,3.6c1.1,0.8,2.6,0.9,3.8,0.3l2.3-1.2
		l2.3,1.2c0.5,0.3,1.1,0.4,1.7,0.4c0.8,0,1.5-0.2,2.1-0.7c1.1-0.8,1.7-2.2,1.4-3.6l-0.4-2.6l1.9-1.8c1-1,1.4-2.4,0.9-3.7
		C163.5,88.3,162.3,87.4,161,87.2z M157.2,92.2c-0.9,0.8-1.2,2-1,3.2l0.1,0.8l-0.7-0.4c-1.1-0.6-2.3-0.6-3.4,0l-0.7,0.4l0.1-0.8
		c0.2-1.2-0.2-2.4-1-3.2l-0.6-0.6l0.8-0.1c1.2-0.2,2.2-0.9,2.7-2l0.4-0.7l0.4,0.7c0.5,1.1,1.6,1.8,2.7,2l0.8,0.1L157.2,92.2z"/>
</g>
</svg>
