<svg xmlns="http://www.w3.org/2000/svg" viewBox="0 0 301 301"><defs><style>.cls-1{fill:#991f1f;}.cls-2{font-size:27.05px;fill:#fff;font-family:Royals-Regular, Royals;}.cls-3{letter-spacing:-0.13em;}.cls-4{letter-spacing:0em;}.cls-5{letter-spacing:-0.03em;}</style></defs><title>LT-logo</title><g id="Layer_2" data-name="Layer 2"><rect class="cls-1" width="301" height="301"/><path d="M555.48,471.39a129.6,129.6,0,0,0,13.44-5.68c1-.89,2.07-1.78,3.08-2.71-1,.93-2,1.82-3.08,2.71,1-.54,2.06-1.1,3.08-1.71a183.72,183.72,0,0,0,19.31-13.26v-2.28c-1.45.84-2.88,1.68-4.31,2.54,1.43-.86,2.86-1.7,4.31-2.54V358l4.79-11.87H550.69L555.48,358Z" transform="translate(-504 -295)"/><path d="M557.39,475l-1.91,1.34v.17Z" transform="translate(-504 -295)"/><path d="M568.92,465.71a129.6,129.6,0,0,1-13.44,5.68v5l1.91-1.34C561.23,472,565.13,469,568.92,465.71Z" transform="translate(-504 -295)"/><path d="M591.31,450.74A183.72,183.72,0,0,1,572,464c-1,.61-2,1.17-3.08,1.71-3.79,3.25-7.69,6.29-11.53,9.33l33.92-23.82Z" transform="translate(-504 -295)"/><path d="M650.67,476.05H596.31V463.22L562.39,487l-1.91,1.51v7.29l-4.79,12.29h91.86l5.62-2.5,4.17-4.37,2.08-5.42V471.26Z" transform="translate(-504 -295)"/><polygon points="146.72 63.72 143.32 65.84 141.84 70.08 141.84 75.6 141.84 106.8 154.79 101.92 164.54 101.92 211.56 63.72 146.72 63.72"/><polygon points="262.72 65.41 259.11 63.72 223.56 63.72 176.54 101.92 189.92 101.92 189.92 204.01 185.04 216.53 233.22 216.53 228.34 204.01 228.34 101.92 251.47 101.92 264.42 106.8 264.42 75.6 264.42 69.44 262.72 65.41"/><text class="cls-2" transform="translate(41 279.98)">L<tspan class="cls-3" x="13.33" y="0">a</tspan><tspan class="cls-4" x="26.34" y="0">wrence thom</tspan><tspan class="cls-5" x="199.49" y="0">a</tspan><tspan x="215.07" y="0">s</tspan></text></g></svg>